<?xml version="1.0" encoding="UTF-8" standalone="no"?>
<svg
   version="1.1"
   id="Layer_1"
   x="0px"
   y="0px"
   viewBox="0 0 1481061.4 559535.44"
   xml:space="preserve"
   sodipodi:docname="coole bril.svg"
   width="1481061.4"
   height="559535.44"
   xmlns:inkscape="http://www.inkscape.org/namespaces/inkscape"
   xmlns:sodipodi="http://sodipodi.sourceforge.net/DTD/sodipodi-0.dtd"
   xmlns="http://www.w3.org/2000/svg"
   xmlns:svg="http://www.w3.org/2000/svg"><defs
   id="defs79" /><sodipodi:namedview
   id="namedview79"
   pagecolor="#505050"
   bordercolor="#ffffff"
   borderopacity="1"
   inkscape:showpageshadow="0"
   inkscape:pageopacity="0"
   inkscape:pagecheckerboard="1"
   inkscape:deskcolor="#505050" />
<style
   type="text/css"
   id="style1">
	.st0{fill:#3BB6E7;}
	.st1{fill:#393434;}
	.st2{fill:#FF0000;}
</style>
<g
   id="g79"
   transform="translate(-183862.31,-18760.631)">
	<g
   id="g18">
		<g
   id="g17">
			<path
   class="st0"
   d="M 356.7,227.5 C 384.3,170 429.2,119.9 484.3,87.4 c 35,-22 72.9,-39.7 113.1,-50 21.5,-5.8 43.6,-8.3 65.9,-9.5 74.4,-7 149.9,12.5 214.3,49.5 10,6.2 20.9,11.8 29.3,20.1 9.6,9.9 0.4,21.5 -7.2,29.3 -4.3,4.7 -8.6,9.3 -12.9,13.9 -7.1,7.5 -13.3,15.8 -22.5,16.5 -5.9,0.4 -11.3,-2.4 -16.4,-5.2 -6.9,-3.9 -14.1,-7.5 -21.4,-10.9 -17.6,-8.3 -35.3,-16 -53.9,-21.7 -60.5,-18.9 -124.6,-13.9 -184.5,4 -16.5,4.7 -30.6,14.5 -45.2,23.4 -11.5,7 -23.4,13.8 -34,21.7 -9.6,7.6 -17.4,16.8 -25.9,25.5 -5.9,6.1 -12,12.1 -17.5,19 -39.1,43.6 -57.4,98.9 -67,155.9 -7.4,30 -49.1,41.4 -69.3,17.2 -11.3,-12.5 -10.7,-30.3 -8.1,-46 5.8,-39.2 19.3,-76.2 35.4,-112.1 z"
   id="path1" />
			<path
   class="st0"
   d="m 543.2,226.6 c 4,-5.8 9.3,-10.1 15.4,-13.6 6.1,-4.2 13.2,-7.1 18,-13.1 46.9,-31.2 98.2,-41.7 153.7,-32.6 15.4,4.3 30.9,8.2 46.2,12.8 16.2,4.6 30,13.6 44,22.5 5,3.2 5.9,5.7 1.5,10.4 -15.8,17 -31.4,34.2 -46.9,51.5 -3,3.4 -5.4,3.8 -9.5,1.6 -55.8,-30.6 -108.8,-24.3 -159.2,12.8 -10.4,6.7 -18.1,16 -24.5,26.4 -5.2,5.5 -8.9,12.1 -11.4,19.1 -5.2,14.5 -13.4,26.4 -26,35.2 l 0.1,-0.2 c -15.3,5.9 -29,1.2 -42.4,-6.1 -1.1,-0.9 -2.2,-1.8 -3.2,-2.7 -16.8,-20.5 -9.7,-40.9 0.3,-61.3 2.7,-5.6 6.3,-10.7 8,-16.8 4,-9.4 9.9,-17.4 17,-24.7 6.8,-6.7 13.4,-13.4 18.9,-21.2 z"
   id="path2" />
			<path
   class="st0"
   d="M 872.9,78.4 C 850.7,67.5 829.1,55.1 805.1,48.2 789,43.6 772.5,40.3 756.5,35.8 718.7,25.2 681,30.6 643.2,32.1 c -29.2,1.2 -56.7,10 -83.9,20.1 -27.6,10.2 -53,24.5 -77.4,40.6 -3,2 -6.2,2 -9.5,2.2 C 506.5,67.6 545.7,50 587.5,38.5 684.2,12.1 777,23 865.7,69.9 c 3.2,1.7 6.2,4 9.3,6.1 -0.4,1.1 -1.1,1.9 -2.1,2.4 z"
   id="path3" />
			<path
   class="st0"
   d="m 340.4,273.7 c -5.6,22.7 -12.3,45.1 -15.6,68.3 -2,14.3 -4.3,28.4 5.9,41 14,17.2 31.6,16.8 50.4,10.9 0.8,-0.9 1.5,-0.9 2.2,0.1 -13.3,10.3 -27.8,9.9 -41.9,2.8 -15,-7.5 -23.2,-20.7 -22,-37.4 2.2,-30.6 8.1,-60.5 20.3,-88.9 1.6,0.8 1.8,1.9 0.7,3.2 z"
   id="path4" />
			<path
   class="st0"
   d="m 507.2,272.3 c 0.6,8.4 -4.9,14.5 -8.3,21.4 -9.4,19 -12,37.8 0,56.7 -12.6,-10.2 -14.1,-24.1 -10.7,-38.1 3.6,-14.4 9.8,-28.1 19,-40 z"
   id="path5" />
			<path
   class="st0"
   d="m 544.5,359.4 c 16.2,-14.2 22.8,-34.5 32.8,-52.5 0.7,-1.2 2.7,-1.6 4.1,-2.4 0.7,-1.1 1.3,-1.1 2,0.1 -6.2,11.2 -12.2,22.5 -17.3,34.3 -4.1,9.6 -10.6,17.7 -21.6,20.5 z"
   id="path6" />
			<path
   class="st0"
   d="m 502.2,353.1 c 14,3.2 27.6,8.8 42.4,6.1 -15.7,8.1 -29.4,6.1 -42.4,-6.1 z"
   id="path7" />
			<path
   class="st0"
   d="m 776.5,180.1 c -16.3,-0.6 -30.8,-8.5 -46.7,-10.7 -0.1,0 -0.3,-0.8 -0.2,-1.1 0.1,-0.4 0.5,-0.7 0.8,-1 16,1.5 31.5,5.4 46.1,12.8 z"
   id="path8" />
			<path
   class="st0"
   d="m 561,136 c -0.4,-0.7 -0.7,-1.4 -1.1,-2 12.7,-6.4 24.8,-14.4 40.1,-13.2 -13,5 -26,10.1 -39,15.2 z"
   id="path9" />
			<path
   class="st0"
   d="m 906.3,96.5 c 0,0.9 0,1.9 0,2.8 -11.1,-7 -22.3,-13.9 -33.4,-20.9 0.7,-0.8 1.4,-1.7 2.1,-2.5 10.8,6.3 22.1,11.9 31.3,20.6 z"
   id="path10" />
			<path
   class="st0"
   d="m 583.4,304.5 c -0.7,0 -1.3,0 -2,-0.1 5.6,-11.2 12.3,-21.3 25,-25.7 -7.7,8.6 -15.4,17.2 -23,25.8 z"
   id="path11" />
			<path
   class="st0"
   d="m 543.2,226.6 c -3.2,9.8 -10.3,16.2 -19,21 5.1,-8.1 11.2,-15.4 19,-21 z"
   id="path12" />
			<path
   class="st0"
   d="m 357.9,227.3 c 0.7,9.2 -3.9,16.4 -8.6,23.6 -0.7,1.2 -1.4,1.3 -2.1,0 2.6,-8.3 6.1,-16.2 10.7,-23.6 z"
   id="path13" />
			<path
   class="st0"
   d="m 347.2,251 c 0.7,0 1.4,0 2.1,0 -2.5,7.8 -3.6,16.1 -8.9,22.8 -0.2,-1.1 -0.4,-2.2 -0.6,-3.2 0.8,-7.3 3.9,-13.5 7.4,-19.6 z"
   id="path14" />
			<path
   class="st0"
   d="m 576.6,199.9 c -3,8.5 -10.6,10.6 -18,13.1 5,-5.8 11.2,-9.8 18,-13.1 z"
   id="path15" />
			<path
   class="st0"
   d="m 495.9,180.1 c 1.1,-5.5 4.3,-8.8 10.2,-8.9 -2.7,3.8 -6.2,6.6 -10.2,8.9 z"
   id="path16" />
			<path
   class="st0"
   d="m 383.4,394 c -0.7,0 -1.5,0 -2.2,-0.1 2.2,-4.4 5.1,-7.8 10.6,-7.6 -2,3.6 -4.7,6.1 -8.4,7.7 z"
   id="path17" />
		</g>
	</g>
	<g
   id="g77">
		<path
   class="st1"
   d="m 276.1,695.3 c -33.8,-38.7 -48.1,-89.6 -74.6,-133 -4.6,-7.3 -9.5,-14.5 -16.6,-19.8 -2.8,-2 -6,-3.4 -9.5,-4.2 -9.5,-2 -16.5,-7.6 -21.2,-16 -2.7,-5.1 -5.7,-10.2 -7.5,-15.7 -0.6,-1.5 -0.9,-2.9 -2,-3.8 -0.4,-0.4 -0.7,-0.9 -1,-1.4 -1.1,-3.6 -0.9,-6.8 -2.9,-10.2 -3.3,-14.5 -13.1,-29.6 1.9,-41 4.9,-4 10.3,-6.7 16,-9.3 21.8,-9.6 44.2,-17.9 66.6,-26.2 4.3,-1.2 8.4,-2.4 12.5,-4.2 7.5,-2.1 15.1,-4.1 22.1,-7.3 6.5,-1.2 12.7,-2.6 18.7,-5.3 7.3,-1 14.1,-3.7 21.4,-5.4 7.3,-2.7 14.8,-4.9 22.3,-6.9 0.9,-0.3 1.9,-0.3 2.5,0.3 1.1,1.1 0.9,2.9 0.7,4.4 -1.3,10.8 -4,21.5 -5,32.4 -0.1,5.6 -4.1,6.3 -8.2,8.4 -7.4,4.6 -16,6.8 -23.9,10.7 -10.4,5.1 -20.1,11.1 -28.6,18.9 -13.6,12.3 -20.7,29 -19.7,47 0.5,24.6 8.1,48 16.3,71 7.1,21.9 15.7,43.6 26.2,64.2 2.2,3.7 3.3,8.1 2.4,12.4 -2,11 -3.5,22.3 -5.2,33.4 -0.3,2.5 -0.2,6.5 -3.5,6.4 z"
   id="path18" />
		<path
   class="st1"
   d="m 1218.4,222 c 2,13.1 -3.2,19.6 -10.5,29.4 -5.1,8.2 -7.5,17.1 -8.3,26.4 -1.7,25.8 5.2,51.3 7.5,77 7.7,72.9 -5.5,162.9 -81.7,193.6 -9.1,3.9 -18.1,8 -27.1,12.1 -2.6,1.7 -6.3,2.5 -9,3.1 -4,1 -3.2,-1.8 -3,-4.8 0.7,-7.9 2,-15.7 3.5,-23.5 0.4,-2.5 2.4,-4.1 4.6,-5.1 42.7,-18.9 72.5,-55 76.1,-102.2 3.3,-31.8 -1.2,-63.9 -6.6,-95 -3.1,-16.9 -7,-33.7 -12.8,-50 -3.8,-10.4 -8.6,-20.4 -14.7,-29.7 -2.4,-3.3 -2.5,-7.6 -2.1,-11.5 3.6,-23.2 7.2,-46.5 10.7,-69.8 1.2,-4.4 4.6,-6.4 8.8,-7.2 14.1,-2.4 28.5,-5.9 42.7,-4.6 5.2,1.1 9.3,5.1 10.7,10.3 1.9,6.9 4.1,13.7 5.2,20.7 0.8,4 4.2,7.8 2.6,12 0.9,4.9 1.7,9.9 2.7,14.8 0.4,1.2 0.6,2.5 0.6,3.7 z"
   id="path19" />
		<g
   id="XMLID_00000054980107301039855700000003807100232158611131_">
			<g
   id="g20">
				<path
   class="st1"
   d="m 1153,164.6 c 3.4,1.2 -1.5,1.9 -2.5,2.7 -2.5,1.6 -3.4,4.1 -4,6.9 -3.3,25.1 -8.5,50.2 -10.8,75.1 -1.5,0.8 -3.3,-1.3 -4.3,-2.4 -30.3,-36.4 -79.2,-23.3 -119,-14.8 -54,11.2 -106,30.2 -157.2,49.9 -4,0.4 -3.9,-2.6 -3.2,-5.8 1.1,-8.1 2.6,-16.3 3.8,-24.4 0.4,-1.5 -0.4,-3.5 -0.8,-4.6 l 0.1,-0.3 c 21.6,-10.4 45.2,-17 67.4,-26.1 6.8,-1.7 13.4,-4.3 20,-6.7 9.7,-2.5 19.2,-5.8 28.4,-9.6 9.9,-1.7 19.7,-5.2 29.6,-7.7 12.4,-3.8 25.4,-6.5 38,-10.1 37.7,-9.8 76.2,-17.1 114.5,-22.1 z"
   id="path20" />
			</g>
			<g
   id="g21">
			</g>
		</g>
		<g
   id="XMLID_00000091693675918097993850000000994526454171839421_">
			<g
   id="g22">
				<path
   class="st1"
   d="m 610.1,342.8 c 0.4,0.4 -0.4,1.3 -0.7,2.4 -0.6,6.1 -1.3,12.2 -2.6,18.3 -7.7,48.3 1.4,28.6 -38.4,22.4 -32.9,-4.8 -66.5,-1.1 -99.2,4.4 -52.2,9.2 -103.9,22.3 -153.5,40.6 -1.1,0.4 -2.6,0.6 -3.6,0 -0.5,-0.3 -0.5,-0.9 0,-1.3 1.6,-1.2 4.5,-1.2 5.6,-3.1 0.4,-0.6 0.7,-1.4 0.8,-2.2 1.1,-11.9 3.8,-23.6 5.4,-35.4 0.2,-1.2 -0.4,-2.7 0.6,-3.6 5.4,-2.1 11.6,-3.6 17.4,-4.5 6.4,-1.8 12.7,-3.6 19,-5.4 3.8,-1.8 8,-3.1 12.2,-3.4 4.6,-1 8.5,-3.7 13.4,-3.8 2.9,-0.6 5.9,-2.1 8.9,-1.9 h 0.4 c 29.1,-6 58.3,-12.1 88.1,-14.6 42,-3.2 84.4,-6.9 126.2,-8.9 z"
   id="path21" />
			</g>
			<g
   id="g23">
			</g>
		</g>
		<g
   id="XMLID_00000097495214782084398180000011105428291983088523_">
			<g
   id="g24">
				<path
   class="st1"
   d="m 1090.5,534.1 0.2,0.3 c 0.9,7.9 -2.1,16.2 -2.8,24.1 -0.1,0.6 -0.3,2.8 0.2,3.7 0.3,0.7 1,0.8 1.8,0.8 0.7,0 1.2,0.1 1.1,0.4 -3.9,2.4 -9.7,3.6 -14.1,5.3 -1.5,0.2 -2.2,1.8 -3.7,2.3 -2.2,0.8 -4.7,1.1 -6.9,1.4 -2,0.8 -4.1,1.8 -6.2,2.3 -2.1,0.7 -4.1,1.1 -6.2,1.2 -1.7,0.2 -3.1,1.3 -4.8,1.9 -7.2,1.9 -14.4,4.6 -21.7,5.5 -2.9,1.3 -5.9,2.5 -9.1,3.1 -3.7,0.3 -6.7,1.1 -10.1,2.8 -0.9,0.3 -1.8,0.6 -2.8,0.8 -1.5,0.2 -2.7,-0.7 -4.2,-0.2 -5.7,1.4 -11.5,2.2 -17.4,2.8 -57,10 -105.1,1.8 -150.2,-35.3 -7.2,-5.8 -14.3,-11.5 -20.5,-18.4 -0.8,-0.8 -1.2,-1.8 -1.1,-3 2,-12.1 3.6,-24.5 5.8,-36.5 1,-6.1 4.5,-4 7.6,-0.6 3.6,4 7.5,7.8 11.5,11.6 8,7.5 16.3,14.7 25.1,21.3 62.4,48.9 135.7,34.2 204.8,10 6.4,-2.2 12.8,-4.9 19,-7.5 1.9,-0.7 3.8,-0.9 4.7,-0.1 z"
   id="path23" />
			</g>
			<g
   id="g25">
			</g>
		</g>
		<path
   class="st1"
   d="m 306,390.6 c -3.4,3.2 -8,2.8 -12,4.4 -0.4,-0.1 -0.5,-0.3 -0.5,-0.6 0.1,-0.2 0.1,-0.4 0.2,-0.4 4.2,-1.1 8.2,-2.3 12.3,-3.4 z"
   id="path25" />
		<path
   class="st1"
   d="m 351.1,379 c -4.2,0.7 -8,3.4 -12.5,2.4 4.1,-1.1 8.1,-2.3 12.2,-3.4 0.4,0.1 0.6,0.3 0.5,0.5 0,0.4 -0.1,0.5 -0.2,0.5 z"
   id="path26" />
		<path
   class="st1"
   d="m 395.9,366.6 c -3.8,0.9 -7.3,3.3 -11.5,2 3.7,-1 7.5,-2.1 11.2,-3.1 0.1,0.4 0.2,0.8 0.3,1.1 z"
   id="path27" />
		<path
   class="st1"
   d="m 293.8,394 c 0.1,0.3 0.2,0.7 0.2,1 -2.4,0.6 -4.8,1.3 -7.2,1.9 -0.4,-0.1 -0.5,-0.3 -0.4,-0.6 0.1,-0.2 0.1,-0.3 0.2,-0.4 2.4,-0.5 4.8,-1.2 7.2,-1.9 z"
   id="path28" />
		<path
   class="st1"
   d="m 351.1,379 c -0.1,-0.3 -0.2,-0.6 -0.3,-1 2.4,-0.7 4.8,-1.3 7.1,-2 0.4,0.1 0.5,0.3 0.5,0.5 0,0.2 -0.1,0.4 -0.2,0.4 -2.3,0.8 -4.7,1.4 -7.1,2.1 z"
   id="path29" />
		<path
   class="st1"
   d="m 358.2,377 c -0.1,-0.3 -0.2,-0.6 -0.3,-0.9 2,-0.6 4.1,-1.1 6.1,-1.7 -1.2,2.4 -3.8,1.8 -5.8,2.6 z"
   id="path30" />
		<path
   class="st1"
   d="m 280.6,397.7 c 2,-0.6 4.1,-1.1 6.1,-1.7 0.1,0.3 0.2,0.6 0.2,0.9"
   id="path31" />
		<path
   class="st1"
   d="m 1024.5,584.5 c 1.6,-2.1 3.6,-2.7 6.1,-1.7 -2,0.6 -4,1.1 -6.1,1.7 z"
   id="path32" />
		<path
   class="st1"
   d="m 1050,577.4 c 1.6,-2.1 3.6,-2.7 6.1,-1.7 -2.1,0.5 -4.1,1.1 -6.1,1.7 z"
   id="path33" />
		<path
   class="st1"
   d="m 375.5,372.1 c -1.4,0.4 -2.8,1.7 -4.3,0.3 1.4,-0.4 2.7,-0.8 4.1,-1.1 0.4,0.1 0.5,0.3 0.5,0.5 -0.1,0.1 -0.2,0.3 -0.3,0.3 z"
   id="path34" />
		<path
   class="st1"
   d="m 375.5,372.1 c -0.1,-0.3 -0.2,-0.6 -0.3,-0.9 1.4,-0.4 2.7,-0.8 4.1,-1.1 -0.4,2.3 -2.4,1.5 -3.8,2 z"
   id="path35" />
		<path
   class="st1"
   d="m 1013,586.7 c 1.4,-0.4 2.8,-1.5 4.4,-0.2 -1.4,0.4 -2.7,0.8 -4.1,1.1 -0.4,-0.1 -0.5,-0.3 -0.5,-0.5 0.1,-0.2 0.1,-0.3 0.2,-0.4 z"
   id="path36" />
		<path
   class="st1"
   d="m 142.8,494.5 c 0.2,1.1 1.7,2.2 0,3.2 -0.3,-1 -0.6,-2 -0.9,-3.1 0.2,-0.4 0.5,-0.5 0.9,-0.1 z"
   id="path37" />
		<path
   class="st1"
   d="m 1212.8,193.8 c -0.2,-0.7 -0.4,-1.4 -0.6,-2 0.1,-0.6 0.4,-0.7 0.9,-0.3 0.2,0.7 0.4,1.4 0.6,2 -0.2,0.5 -0.5,0.7 -0.9,0.3 z"
   id="path38" />
		<path
   class="st1"
   d="m 142.8,494.5 c -0.3,0.1 -0.6,0.2 -0.9,0.2 -0.2,-0.7 -0.4,-1.4 -0.6,-2 1.3,0 1.5,0.9 1.5,1.8 z"
   id="path39" />
		<path
   class="st1"
   d="m 1212.8,193.8 c 0.3,-0.1 0.6,-0.2 0.9,-0.3 0.2,0.7 0.4,1.4 0.6,2 -1.6,0.3 -1.4,-0.8 -1.5,-1.7 z"
   id="path40" />
		<path
   class="st1"
   d="m 1211.6,189.7 c -0.4,-0.8 -0.6,-1.7 0.3,-2.3 0.2,0.7 0.4,1.4 0.6,2 -0.1,0.6 -0.4,0.7 -0.9,0.3 z"
   id="path41" />
		<path
   class="st1"
   d="m 1211.6,189.7 c 0.3,-0.1 0.6,-0.2 0.9,-0.3 0.2,0.7 0.4,1.4 0.6,2 -0.3,0.1 -0.6,0.2 -0.9,0.3 -0.2,-0.6 -0.4,-1.3 -0.6,-2 z"
   id="path42" />
		<path
   class="st1"
   d="m 1009.3,588.8 c -0.2,-1.4 0.9,-1.3 1.8,-1.5 0.4,0.1 0.6,0.3 0.5,0.5 -0.1,0.2 -0.1,0.4 -0.2,0.4 -0.8,0.2 -1.5,0.4 -2.1,0.6 z"
   id="path43" />
		<path
   class="st1"
   d="m 1011.3,588.2 c -0.1,-0.3 -0.2,-0.6 -0.3,-0.9 0.7,-0.2 1.3,-0.4 2,-0.6 0.1,0.3 0.2,0.6 0.3,0.9 -0.7,0.2 -1.3,0.4 -2,0.6 z"
   id="path44" />
		<path
   class="st1"
   d="m 1064.2,573.4 c 0,-1.2 0.9,-1.4 1.8,-1.5 0.4,0.1 0.5,0.3 0.5,0.5 -0.1,0.2 -0.1,0.3 -0.2,0.4 -0.7,0.2 -1.4,0.4 -2.1,0.6 z"
   id="path45" />
		<path
   class="st1"
   d="m 1066.3,572.8 c -0.1,-0.3 -0.2,-0.6 -0.2,-0.9 0.8,-0.4 1.7,-0.9 2.3,0.3 -0.8,0.2 -1.5,0.4 -2.1,0.6 z"
   id="path46" />
		<path
   class="st1"
   d="m 820.7,496.2 c -1.9,12.6 -4.3,25.4 -6.3,37.9 -0.1,1.1 -0.3,2.5 -1.4,2.9 -30.9,-26.2 -46.9,-66 -71.8,-97.6 -5.9,-7.2 -12.7,-14.1 -21.4,-17.7 -16.3,-6.5 -35.2,1 -42.4,17.6 -3.9,9 -4.5,18.4 -4.4,28 1,49 -4.1,98.8 -22.8,144.4 -17.5,44 -52.6,74 -93.9,93.6 -1.4,0.5 -3.2,1.1 -4.3,0.1 -0.8,-1 -0.5,-2.8 -0.3,-4.1 2,-9.4 2,-19.3 5.1,-28.3 65.4,-45.2 88.6,-116.5 79.9,-194.1 -2.3,-21 -5.5,-42.9 -16,-61.5 -4.2,-7.2 -9.9,-13.7 -17.5,-18.8 -1.2,-0.8 -2.5,-1.5 -2.9,-2.9 1.6,-16.5 5,-32.9 7.1,-49.4 0.2,-2.4 1.8,-4 4.5,-4 19.2,-1.8 38.1,-5.6 56.6,-10.8 27.1,-8 53.4,-18.2 78.6,-30.8 10.2,-5.2 20.2,-10.8 30,-16.9 24.2,-15.3 50.4,-26.5 77.1,-36.9 1.3,-0.5 2.9,-0.6 3.5,0.1 0.7,1.1 0.3,2.9 0.1,4.2 -2.2,10.6 -2.6,21.6 -5.6,32 -23.6,11.3 -47.3,23.8 -65.4,43.5 -13,14.2 -25,33.9 -21.9,54.4 9.9,38.7 26.6,74.6 51.1,106.3 2,2.5 4.5,5.2 4.5,8.4 z"
   id="path47" />
		<g
   id="XMLID_00000125585385022883372030000000619104670735548310_">
			<g
   id="g48">
				<path
   class="st1"
   d="m 557.8,673.5 0.2,0.2 c -0.5,10 -3.5,20.4 -4.1,30.8 0.3,0.8 1.9,0.3 3.1,0 1,-0.2 1.8,-0.4 1.5,-0.1 -12.8,7.6 -26.9,12.6 -40.6,18.4 -38.3,15.5 -79,23.9 -119.9,28.3 -49.2,9.2 -92.7,-16.2 -121.5,-54.3 -0.1,-0.2 -0.3,-0.6 -0.4,-0.8 -0.5,-1.1 1,-2.1 1.3,-3.5 0.4,-1.4 0.3,-2.8 0.6,-4.2 2.2,-12.9 3.9,-26.3 5.9,-39 2.6,-0.6 3.3,3.2 4.4,4.9 8.6,15.4 19.4,29.3 32.9,40.6 35.8,30 73.8,32.9 117.8,21.4 38.5,-8.1 76.3,-20.5 110.7,-40 2.4,-1 5.4,-4 8.1,-2.7 z"
   id="path48" />
			</g>
			<g
   id="g49">
			</g>
		</g>
		<path
   class="st1"
   d="m 992.4,591.4 c 2.8,-0.9 5.6,-1.8 8.6,-1.5"
   id="path49" />
		<path
   class="st1"
   d="m 146.2,505.4 c 1.6,1.7 2.1,3.9 2.6,6.1 -2.2,-1.5 -2.4,-3.9 -2.6,-6.1 z"
   id="path50" />
		<path
   class="st1"
   d="m 153.4,465.4 c 2.8,0.1 3,2.3 3.4,4.3 -2,3.7 -5.6,3.7 -9,3.8 -2.2,0.1 -3.6,-1.1 -2.9,-3.7 0.1,-1.6 0.5,-3.1 2.2,-3.8 2.1,0 4.3,0.8 6.3,-0.6 z"
   id="path51" />
		<path
   class="st1"
   d="m 144.9,469.8 c 1.9,4.8 5.4,1.9 8.3,1.7 1.3,-0.1 2.4,-1.2 3.6,-1.8 1.2,5 -2.1,6.5 -6,7 -3.7,0.5 -6,-2.5 -5.9,-6.9 z"
   id="path52" />
		<path
   class="st1"
   d="m 172,511.6 c 0.4,0.9 0.2,1.7 -0.3,2.4 -3.2,2.3 -6.5,0.5 -9.8,0.3 -0.5,-0.2 -1,-0.4 -1.4,-0.6 -1.7,-3.8 -0.5,-6.2 3.4,-7.5 0.6,0.5 0.4,1.1 0.3,1.7 -0.1,1.7 1.3,1.9 2.4,2.4 1.6,0.7 3.7,0 5.4,1.3 z"
   id="path53" />
		<path
   class="st1"
   d="m 161.4,513.5 c 3.5,-1 6.8,1.2 10.3,0.5 -0.9,1 -1.7,1.9 -2.6,2.9 -3.5,1 -6.6,1.1 -7.7,-3.4 z"
   id="path54" />
		<path
   class="st1"
   d="m 172,511.6 c -1.9,-0.4 -4,1.6 -5.7,-0.6 -0.9,-0.4 -2,-0.6 -1.7,-2 2,-3.2 4.3,-0.8 6.6,-0.5 1.2,0.7 1,1.9 0.8,3.1 z"
   id="path55" />
		<path
   class="st1"
   d="m 171.1,508.5 c -2.1,1 -4.4,-1.1 -6.4,0.6 -0.9,-0.2 -1.8,-0.3 -1.4,-1.6 0.2,-0.5 0.4,-0.9 0.5,-1.4 2.9,-0.7 5.5,-0.4 7.3,2.4 z"
   id="path56" />
		<path
   class="st1"
   d="m 153.4,465.4 c -1.9,2.3 -3.9,3.6 -6.3,0.5 1.9,-2.6 4.1,-0.8 6.3,-0.5 z"
   id="path57" />
		<path
   class="st1"
   d="m 161.4,513.5 c 1.6,3.4 4.6,3.4 7.7,3.4 -4.2,2.5 -7,1.2 -8.7,-3.2 0.3,-0.1 0.7,-0.2 1,-0.2 z"
   id="path58" />
		<path
   class="st1"
   d="m 1077.9,568.4 c 2.8,-1.9 5.9,-2.8 9.2,-3.5 -2.5,2.6 -6,2.5 -9.2,3.5 z"
   id="path59" />
		<path
   class="st1"
   d="m 1218.3,221.9 c -0.9,-2.5 -1.6,-5 -1.2,-7.7 0.7,2.4 2.5,4.8 1.2,7.7 z"
   id="path60" />
		<path
   class="st1"
   d="m 1216.3,210.3 c -0.9,-2.5 -1.6,-5 -1.3,-7.7 0.7,2.6 2.4,4.9 1.3,7.7 z"
   id="path61" />
		<path
   class="st1"
   d="m 1090.8,563.6 c 0.1,-0.3 0.2,-0.6 0.2,-0.9 2,-0.6 4,-1.2 5.9,-1.8 -1.4,2.4 -3.9,2.1 -6.1,2.7 z"
   id="path62" />
		<path
   class="st1"
   d="m 1206.1,217.8 c 3.8,3.6 1.5,6.6 -1.3,9 -2.7,2.3 -5.6,2.3 -7.6,-1.2 -0.3,-2.4 0.9,-3.4 3.1,-3.8 1.8,-0.3 3.9,-0.2 4.9,-2.2 0.2,-0.6 0.5,-1.2 0.9,-1.8 z"
   id="path63" />
		<path
   class="st1"
   d="m 1206.4,219.5 c 0.6,4.1 -3,3.4 -4.8,3.5 -2.2,0.2 -3.5,0.9 -4.4,2.7 -2.8,-2.7 -2.6,-5.4 0,-8.2 2.5,3.3 6.5,-0.4 9.2,2 z"
   id="path64" />
		<path
   class="st1"
   d="m 1206.4,219.5 c -2.5,-0.4 -4.7,1.9 -7.5,0.7 -1.5,-0.7 -1.7,-1.4 -1.7,-2.6 3.1,-3.2 6.1,-2.8 8.9,0.3 0.1,0.5 0.2,1 0.3,1.6 z"
   id="path65" />
		<path
   class="st1"
   d="m 1188.7,176.3 c 1.8,-4.8 5.2,-3.2 8.5,-2.2 1.3,1.4 1.7,3.2 1.5,5.1 -0.4,0.4 -0.8,0.5 -1.3,0.5 -2.2,-0.9 -4.6,-1.4 -6.9,-2.2 -0.5,-0.1 -0.9,-0.3 -1.3,-0.6 -0.2,-0.3 -0.4,-0.5 -0.5,-0.6 z"
   id="path66" />
		<path
   class="st1"
   d="m 1199,181.1 c -0.7,2 -2.4,2.9 -4.3,3.5 -1.1,-0.6 -3.3,0.3 -3.3,-2.1 0.2,-1.1 0.9,-1.7 1.7,-2.3 0.4,-0.2 0.9,-0.3 1.4,-0.3 1.4,0.5 3.1,0.2 4.5,1.2 z"
   id="path67" />
		<path
   class="st1"
   d="m 1187.2,177.7 c -0.1,-1.1 0.3,-1.6 1.5,-1.5 0.2,-0.2 0.4,-0.3 0.6,-0.2 1.4,1.3 2.2,2.9 2.2,4.9 -0.3,1 0.3,2.6 -1.5,2.8 v 0 c -1,-1.9 -3.3,-3.3 -2.8,-6 z"
   id="path68" />
		<path
   class="st1"
   d="m 1199,181.1 c -1.5,-0.3 -3.3,1.5 -4.4,-0.9 -0.4,-2.6 1.8,-1.3 2.8,-1.9 0.1,0.3 0.2,0.6 0.3,0.9 0.5,0.2 1.2,0.2 1.6,0.8 -0.2,0.5 -0.3,0.8 -0.3,1.1 z"
   id="path69" />
		<path
   class="st1"
   d="m 1190,183.8 c 0.7,-0.7 0.7,-1.6 0.5,-2.5 0.8,-0.4 1.3,-0.2 1.3,0.7 0.2,1.7 2,1.6 2.9,2.6 -1.8,0.9 -3.4,0.7 -4.7,-0.8 z"
   id="path70" />
		<path
   class="st1"
   d="m 1187.2,177.7 c 0.9,2 1.9,4.1 2.8,6.1 -2.7,-1.2 -3.6,-3.3 -2.8,-6.1 z"
   id="path71" />
		<path
   class="st1"
   d="m 1199.2,180.1 c -0.5,-0.3 -1,-0.5 -1.6,-0.8 1.3,-1.9 -0.2,-3.5 -0.4,-5.3 2.4,1.5 3,3.5 2,6.1 z"
   id="path72" />
		<path
   class="st1"
   d="m 393.9,402.9 c -11,2.9 -22.3,7 -33.3,9.2 10.9,-3.2 22.3,-7 33.4,-9.4 z"
   id="path73" />
		<path
   class="st1"
   d="m 449.3,717.4 c 12.1,-3.2 24.3,-7.4 36.4,-10.1 0.1,0.4 -1.2,0.5 -1.8,0.8 -5.3,1.5 -10.6,3 -15.8,4.5 -6.1,1.7 -12.2,3.5 -18.2,5.2 -0.4,0.1 -0.6,-0.1 -0.6,-0.3 z"
   id="path74" />
		<path
   class="st1"
   d="m 163.2,507.5 c 0.5,0.5 0.9,1.1 1.4,1.6 0.5,0.6 1.1,1.2 1.6,1.8 -4,-0.7 -4.3,-1.1 -3,-3.4 z"
   id="path75" />
		<path
   class="st1"
   d="m 1197.3,178.4 c -0.9,0.6 -1.8,1.3 -2.8,1.9 -0.3,0.1 -0.7,0.2 -1,0.2 -3.5,0.3 -3.6,-2 -3.5,-4.5 2.5,0.8 4.9,1.6 7.3,2.4 z"
   id="path76" />
		<path
   class="st1"
   d="m 1190.1,176 c 0.2,2.2 1.5,3.7 3.5,4.5 -0.2,0.9 -0.9,1.3 -1.8,1.5 -0.4,-0.2 -0.9,-0.5 -1.3,-0.7 -0.4,-1.7 -0.8,-3.5 -1.2,-5.2 0.3,0 0.5,-0.1 0.8,-0.1 z"
   id="path77" />
	</g>
	<circle
   class="st2"
   cx="313.20001"
   cy="482.39999"
   r="27.4"
   id="circle77" />
	<path
   class="st1"
   d="m 996.7,184.6 -0.2,-0.4 c -8.9,-13.5 -20.8,-25.1 -32,-37.1 -12.7,-12 -23.9,-30.3 -38.4,-25.3 -6.2,2.7 -10.9,7.5 -16,12.8 -7.7,8.3 -18.4,19.6 -22.4,29.2 -6,16.4 11.9,28.9 23.7,43.5 0.4,0.2 7.2,8.1 13,14.5 0.9,1 1.5,2.1 1.8,3.4 0.3,1 0.8,2.3 1.5,4 27.4,55.6 47,119 29.5,181.6 -16.9,58.1 -52,107.8 -88.1,155.8 l 85.4,20.5 -1.7,7.1 c 40.1,-55.1 76.4,-114.6 89.5,-181.8 14.8,-77.6 -5.5,-160.7 -45.6,-227.8 z"
   id="path78" />
	<path
   class="st1"
   d="m 901.9,299 c -1.4,-10.8 -6.6,-19.7 -13.1,-28.6 -8.6,-11.6 -17.1,-27.4 -28.2,-33.9 -14.3,-9.6 -33.2,-5.4 -45.4,5.9 -20.7,17.9 -13.9,31.2 0,50.3 17.6,27.4 14.1,60.1 -0.2,88.5 -9,23.6 -22.6,44.7 -40.9,62.4 -2.2,2.2 -4.1,4.6 -5.7,7.2 l 52.3,52.3 -14,14 c 11.2,-2.3 21.9,-10 31.3,-19.8 21.2,-20.6 37.8,-44.7 48.9,-71.3 11.8,-26.9 16,-57.8 17.3,-87.4 v -0.5 c 1,-12.8 -0.2,-26.1 -2.3,-39.1 z"
   id="path79" />
</g>
</svg>
